{"glyphs":{"J":{"ha":833,"x_min":0,"x_max":0,"o":"m 218 969 l 640 969 l 640 263 b 572 56 640 172 618 104 b 385 -17 526 7 464 -17 l 385 -17 b 219 32 318 -17 263 0 b 133 165 175 64 146 108 l 133 165 l 163 172 b 236 54 175 122 199 83 b 385 11 272 25 322 11 l 385 11 b 551 76 456 11 511 33 b 610 265 590 119 610 183 l 610 265 l 610 942 l 218 942 l 218 969 z "},"Y":{"ha":833,"x_min":0,"x_max":0,"o":"m 432 0 l 401 0 l 401 408 l 39 969 l 74 969 l 415 442 l 419 442 l 761 969 l 794 969 l 432 408 l 432 0 z "},"N":{"ha":833,"x_min":0,"x_max":0,"o":"m 653 0 l 169 928 l 165 928 l 165 0 l 136 0 l 136 969 l 181 969 l 664 42 l 668 42 l 668 969 l 697 969 l 697 0 l 653 0 z "},"X":{"ha":833,"x_min":0,"x_max":0,"o":"m 436 496 l 765 0 l 728 0 l 419 467 l 415 467 l 104 0 l 68 0 l 399 492 l 81 969 l 118 969 l 415 521 l 419 521 l 717 969 l 753 969 l 436 496 z "},"I":{"ha":833,"x_min":0,"x_max":0,"o":"m 706 0 l 128 0 l 128 26 l 401 26 l 401 943 l 128 943 l 128 969 l 706 969 l 706 943 l 432 943 l 432 26 l 706 26 l 706 0 z "},"O":{"ha":833,"x_min":0,"x_max":0,"o":"m 417 -17 l 417 -17 b 282 13 365 -17 321 -7 b 182 101 242 31 208 61 b 119 257 154 142 133 193 b 99 485 106 319 99 396 l 99 485 b 119 714 99 574 106 650 b 182 869 133 776 154 829 b 282 958 208 910 242 939 b 417 986 321 976 365 986 l 417 986 b 553 958 468 986 513 976 b 651 869 592 939 625 910 b 714 714 678 829 699 776 b 735 485 728 650 735 574 l 735 485 b 714 257 735 396 728 319 b 651 101 699 193 678 142 b 553 13 625 61 592 31 b 417 -17 513 -7 468 -17 z m 417 11 l 417 11 b 629 118 510 11 579 47 b 701 440 678 189 701 297 l 701 440 l 701 529 b 629 851 701 672 676 781 b 417 958 581 922 510 958 l 417 958 b 206 851 324 958 253 922 b 132 529 157 781 132 672 l 132 529 l 132 440 b 206 118 132 297 157 189 b 417 11 254 47 324 11 z "},"S":{"ha":833,"x_min":0,"x_max":0,"o":"m 422 -17 l 422 -17 b 308 -4 379 -17 342 -12 b 219 28 275 3 246 14 b 149 78 193 42 169 58 b 92 142 128 97 110 118 l 92 142 l 117 160 b 171 100 133 138 151 118 b 236 53 190 82 213 65 b 318 22 260 39 288 29 b 422 11 347 15 382 11 l 422 11 b 629 71 511 11 579 31 b 701 244 678 110 701 168 l 701 244 b 683 346 701 285 694 318 b 633 413 671 372 653 394 b 560 453 613 429 588 443 b 474 474 532 463 503 469 l 474 474 l 363 492 b 242 529 314 500 274 513 b 165 586 210 544 183 564 b 125 660 146 608 132 633 b 114 743 118 686 114 714 l 114 743 b 136 850 114 783 121 819 b 197 926 150 881 171 906 b 292 971 224 946 254 961 b 415 986 329 981 369 986 l 415 986 b 606 949 494 986 557 974 b 717 851 653 924 690 892 l 717 851 l 693 832 b 583 926 664 874 628 906 b 413 958 539 947 482 958 l 413 958 b 215 906 328 958 263 940 b 144 743 168 869 144 815 l 144 743 b 163 647 144 706 150 674 b 211 583 175 621 190 600 b 282 543 232 565 256 553 b 368 521 308 533 338 525 l 368 521 l 479 503 b 606 465 531 494 572 482 b 682 404 638 447 664 428 b 721 329 700 381 714 356 b 732 246 728 303 732 275 l 732 246 b 649 50 732 158 704 93 b 422 -17 592 6 517 -17 z "},"C":{"ha":833,"x_min":0,"x_max":0,"o":"m 451 -17 l 451 -17 b 306 13 397 -17 349 -7 b 199 101 263 31 228 61 b 132 257 169 142 147 193 b 110 485 117 319 110 396 l 110 485 b 132 714 110 574 117 650 b 199 869 147 776 169 829 b 306 958 228 910 263 939 b 451 986 349 976 397 986 l 451 986 b 619 933 517 986 574 968 b 719 790 665 899 699 850 l 719 790 l 693 781 b 603 911 675 836 644 879 b 451 958 561 943 511 958 l 451 958 b 222 851 350 958 274 922 b 143 529 169 781 143 672 l 143 529 l 143 440 b 222 118 143 297 169 189 b 451 11 274 47 350 11 l 451 11 b 603 58 511 11 561 26 b 693 189 644 90 675 133 l 693 189 l 719 179 b 619 36 699 119 665 71 b 451 -17 574 1 517 -17 z "},"R":{"ha":833,"x_min":0,"x_max":0,"o":"m 181 447 l 181 0 l 150 0 l 150 969 l 489 969 b 669 899 568 969 629 946 b 731 708 710 851 731 788 l 731 708 b 669 518 731 629 710 565 b 489 447 629 471 568 447 l 489 447 l 436 447 l 724 0 l 688 0 l 401 447 l 181 447 z m 181 475 l 489 475 b 582 493 525 475 556 481 b 647 538 608 504 629 519 b 685 603 664 556 676 578 b 697 679 693 626 697 653 l 697 679 l 697 738 b 685 814 697 764 693 789 b 647 879 676 839 664 861 b 582 925 629 897 608 913 b 489 942 556 936 525 942 l 489 942 l 181 942 l 181 475 z "},"L":{"ha":833,"x_min":0,"x_max":0,"o":"m 733 0 l 203 0 l 203 969 l 233 969 l 233 28 l 733 28 l 733 0 z "}," ":{"ha":833,"x_min":0,"x_max":0,"o":""},"D":{"ha":833,"x_min":0,"x_max":0,"o":"m 150 0 l 150 969 l 403 969 b 656 849 519 969 604 929 b 733 485 707 767 733 646 l 733 485 b 656 122 733 324 707 203 b 403 0 604 40 519 0 l 403 0 l 150 0 z m 181 28 l 404 28 b 538 57 456 28 500 38 b 629 138 575 75 606 103 b 683 268 653 172 671 217 b 700 440 694 319 700 376 l 700 440 l 700 529 b 683 703 700 593 694 651 b 629 832 671 754 653 797 b 538 914 606 867 575 894 b 404 942 500 932 456 942 l 404 942 l 181 942 l 181 28 z "},"W":{"ha":833,"x_min":0,"x_max":0,"o":"m 228 0 l 175 0 l 81 969 l 110 969 l 201 31 l 207 31 l 399 672 l 436 672 l 628 31 l 633 31 l 725 969 l 753 969 l 658 0 l 606 0 l 419 631 l 415 631 l 228 0 z "},"E":{"ha":833,"x_min":0,"x_max":0,"o":"m 714 0 l 150 0 l 150 969 l 714 969 l 714 942 l 181 942 l 181 506 l 694 506 l 694 478 l 181 478 l 181 28 l 714 28 l 714 0 z "},"A":{"ha":833,"x_min":0,"x_max":0,"o":"m 761 0 l 729 0 l 621 325 l 213 325 l 104 0 l 72 0 l 396 969 l 438 969 l 761 0 z m 613 351 l 418 935 l 414 935 l 221 351 l 613 351 z "},"G":{"ha":833,"x_min":0,"x_max":0,"o":"m 682 0 l 682 143 l 678 143 b 644 81 668 121 657 100 b 597 31 632 61 615 44 b 529 -4 578 15 554 4 b 435 -17 503 -12 471 -17 l 435 -17 b 294 13 382 -17 335 -7 b 190 101 253 31 218 61 b 126 257 163 142 142 193 b 104 485 111 319 104 396 l 104 485 b 126 714 104 574 111 650 b 190 869 142 776 163 829 b 294 958 218 910 253 939 b 435 986 335 976 382 986 l 435 986 b 600 933 499 986 554 968 b 699 790 646 899 678 850 l 699 790 l 672 781 b 583 911 654 836 624 879 b 435 958 543 943 493 958 l 435 958 b 214 851 338 958 264 922 b 138 529 163 781 138 672 l 138 529 l 138 440 b 214 118 138 297 163 189 b 435 11 264 47 338 11 l 435 11 b 539 31 474 11 508 18 b 617 85 569 43 596 61 b 665 167 638 107 654 135 b 682 271 676 199 682 233 l 682 271 l 682 410 l 435 410 l 435 438 l 713 438 l 713 0 l 682 0 z "},"T":{"ha":833,"x_min":0,"x_max":0,"o":"m 776 942 l 432 942 l 432 0 l 401 0 l 401 942 l 57 942 l 57 969 l 776 969 l 776 942 z "},"H":{"ha":833,"x_min":0,"x_max":0,"o":"m 667 0 l 667 478 l 167 478 l 167 0 l 136 0 l 136 969 l 167 969 l 167 506 l 667 506 l 667 969 l 697 969 l 697 0 l 667 0 z "},"U":{"ha":833,"x_min":0,"x_max":0,"o":"m 136 969 l 167 969 l 167 379 b 179 201 167 308 171 249 b 219 89 186 154 200 117 b 296 29 238 60 264 40 b 417 11 328 17 368 11 l 417 11 b 538 29 465 11 506 17 b 615 89 569 40 596 60 b 656 201 633 117 647 154 b 667 379 663 249 667 308 l 667 379 l 667 969 l 697 969 l 697 379 b 683 189 697 303 693 240 b 638 67 674 138 658 97 b 550 3 615 36 586 15 b 417 -17 514 -10 469 -17 l 417 -17 b 283 3 364 -17 319 -10 b 197 67 247 15 218 36 b 150 189 175 97 160 138 b 136 379 140 240 136 303 l 136 379 l 136 969 z "},"B":{"ha":833,"x_min":0,"x_max":0,"o":"m 136 0 l 136 969 l 444 969 b 613 908 517 969 572 949 b 672 724 653 867 672 806 l 672 724 b 638 574 672 660 660 610 b 538 499 614 538 581 513 l 538 499 l 538 496 b 672 417 597 485 643 458 b 717 253 701 374 717 319 l 717 253 b 656 69 717 176 696 115 b 475 0 615 24 554 0 l 475 0 l 136 0 z m 167 28 l 475 28 b 568 44 511 28 542 33 b 633 89 594 56 615 71 b 671 151 650 107 663 128 b 683 224 679 175 683 199 l 683 224 l 683 282 b 671 356 683 307 679 331 b 633 418 663 379 650 400 b 568 461 615 436 594 450 b 475 478 542 472 511 478 l 475 478 l 167 478 l 167 28 z m 167 506 l 444 506 b 532 521 478 506 507 511 b 592 563 556 531 576 544 b 628 624 607 581 619 600 b 639 694 635 646 639 669 l 639 694 l 639 753 b 628 825 639 778 635 801 b 592 885 619 847 607 867 b 532 926 576 903 556 917 b 444 942 507 936 478 942 l 444 942 l 167 942 l 167 506 z "},"P":{"ha":833,"x_min":0,"x_max":0,"o":"m 181 0 l 150 0 l 150 969 l 489 969 b 669 899 568 969 629 946 b 731 708 710 851 731 788 l 731 708 b 669 518 731 629 710 565 b 489 447 629 471 568 447 l 489 447 l 181 447 l 181 0 z m 181 942 l 181 475 l 489 475 b 582 493 525 475 556 481 b 647 538 608 504 629 519 b 685 603 664 556 676 578 b 697 679 693 626 697 653 l 697 679 l 697 738 b 685 814 697 764 693 789 b 647 879 676 839 664 861 b 582 925 629 897 608 913 b 489 942 556 936 525 942 l 489 942 l 181 942 z "}}}
